<svg xmlns="http://www.w3.org/2000/svg" xmlns:xlink="http://www.w3.org/1999/xlink" xmlns:ev="http://www.w3.org/2001/xml-events" style="overflow: hidden; " viewBox="0 278.74 591 63.52"><g id="viewport-20241207214720114" class="svg-pan-zoom_viewport" transform="matrix(0.738648435840072,0,0,0.738648435840072,0,278.7381172588769)" style="transform: matrix(0.738648, 0, 0, 0.738648, 0, 278.738);">
<g id="graph0" class="graph" transform="scale(1 1) rotate(0) translate(4 82)">
<title>OSMnxFlow</title>
<polygon fill="gray" stroke="none" points="-4,4 -4,-82 796.11,-82 796.11,4 -4,4"/>
<g id="clust1" class="cluster">
<title>cluster_subs</title>
<polygon fill="gray" stroke="black" points="82,-8 82,-70 710.11,-70 710.11,-8 82,-8"/>
</g>
<!-- start -->
<g id="node1" class="node">
<title>start</title>
<polygon fill="none" stroke="black" points="0,-16.6 0,-61.4 54,-61.4 54,-16.6 0,-16.6"/>
<text text-anchor="start" x="13.01" y="-45.8" font-family="Times,serif" font-weight="bold" font-size="14.00">start</text>
<polyline fill="none" stroke="black" points="0,-36.6 54,-36.6"/>
<text text-anchor="start" x="18.39" y="-23.6" font-family="Times,serif" font-size="10.00">start</text>
</g>
<!-- get_place_polygon -->
<g id="node2" class="node">
<title>get_place_polygon</title>
<polygon fill="none" stroke="black" points="90,-16.6 90,-61.4 216.44,-61.4 216.44,-16.6 90,-16.6"/>
<text text-anchor="start" x="98" y="-45.8" font-family="Times,serif" font-weight="bold" font-size="14.00">get_place_polygon</text>
<polyline fill="none" stroke="black" points="90,-36.6 216.44,-36.6"/>
<text text-anchor="start" x="141.84" y="-23.6" font-family="Times,serif" font-size="10.00">linear</text>
</g>
<!-- start&#45;&gt;get_place_polygon -->
<g id="edge1" class="edge">
<title>start-&gt;get_place_polygon</title>
<path fill="none" stroke="black" d="M54.34,-39C61.57,-39 69.78,-39 78.3,-39"/>
<polygon fill="black" stroke="black" points="78.11,-42.5 88.11,-39 78.11,-35.5 78.11,-42.5"/>
</g>
<!-- get_features_from_place -->
<g id="node3" class="node">
<title>get_features_from_place</title>
<polygon fill="none" stroke="black" points="252.44,-16.6 252.44,-61.4 416.16,-61.4 416.16,-16.6 252.44,-16.6"/>
<text text-anchor="start" x="260.44" y="-45.8" font-family="Times,serif" font-weight="bold" font-size="14.00">get_features_from_place</text>
<polyline fill="none" stroke="black" points="252.44,-36.6 416.16,-36.6"/>
<text text-anchor="start" x="322.92" y="-23.6" font-family="Times,serif" font-size="10.00">linear</text>
</g>
<!-- get_place_polygon&#45;&gt;get_features_from_place -->
<g id="edge2" class="edge">
<title>get_place_polygon-&gt;get_features_from_place</title>
<path fill="none" stroke="black" d="M216.85,-39C224.6,-39 232.64,-39 240.72,-39"/>
<polygon fill="black" stroke="black" points="240.62,-42.5 250.62,-39 240.62,-35.5 240.62,-42.5"/>
</g>
<!-- preprocess_features -->
<g id="node4" class="node">
<title>preprocess_features</title>
<polygon fill="none" stroke="black" points="452.16,-16.6 452.16,-61.4 587.9,-61.4 587.9,-16.6 452.16,-16.6"/>
<text text-anchor="start" x="460.16" y="-45.8" font-family="Times,serif" font-weight="bold" font-size="14.00">preprocess_features</text>
<polyline fill="none" stroke="black" points="452.16,-36.6 587.9,-36.6"/>
<text text-anchor="start" x="508.65" y="-23.6" font-family="Times,serif" font-size="10.00">linear</text>
</g>
<!-- get_features_from_place&#45;&gt;preprocess_features -->
<g id="edge3" class="edge">
<title>get_features_from_place-&gt;preprocess_features</title>
<path fill="none" stroke="black" d="M416.42,-39C424.37,-39 432.42,-39 440.34,-39"/>
<polygon fill="black" stroke="black" points="440.3,-42.5 450.3,-39 440.3,-35.5 440.3,-42.5"/>
</g>
<!-- plot_chart -->
<g id="node5" class="node">
<title>plot_chart</title>
<polygon fill="none" stroke="black" points="623.9,-16.6 623.9,-61.4 702.11,-61.4 702.11,-16.6 623.9,-16.6"/>
<text text-anchor="start" x="631.9" y="-45.8" font-family="Times,serif" font-weight="bold" font-size="14.00">plot_chart</text>
<polyline fill="none" stroke="black" points="623.9,-36.6 702.11,-36.6"/>
<text text-anchor="start" x="651.62" y="-23.6" font-family="Times,serif" font-size="10.00">linear</text>
</g>
<!-- preprocess_features&#45;&gt;plot_chart -->
<g id="edge4" class="edge">
<title>preprocess_features-&gt;plot_chart</title>
<path fill="none" stroke="black" d="M588.21,-39C596.31,-39 604.47,-39 612.26,-39"/>
<polygon fill="black" stroke="black" points="612.22,-42.5 622.22,-39 612.22,-35.5 612.22,-42.5"/>
</g>
<!-- end -->
<g id="node6" class="node">
<title>end</title>
<polygon fill="none" stroke="black" points="738.11,-16.6 738.11,-61.4 792.11,-61.4 792.11,-16.6 738.11,-16.6"/>
<text text-anchor="start" x="754.22" y="-45.8" font-family="Times,serif" font-weight="bold" font-size="14.00">end</text>
<polyline fill="none" stroke="black" points="738.11,-36.6 792.11,-36.6"/>
<text text-anchor="start" x="757.89" y="-23.6" font-family="Times,serif" font-size="10.00">end</text>
</g>
<!-- plot_chart&#45;&gt;end -->
<g id="edge5" class="edge">
<title>plot_chart-&gt;end</title>
<path fill="none" stroke="black" d="M702.42,-39C710.26,-39 718.5,-39 726.31,-39"/>
<polygon fill="black" stroke="black" points="726.22,-42.5 736.22,-39 726.22,-35.5 726.22,-42.5"/>
</g>
</g>
</g></svg>