<?xml version="1.0" encoding="UTF-8" standalone="no"?>
<!DOCTYPE svg PUBLIC "-//W3C//DTD SVG 1.1//EN"
 "http://www.w3.org/Graphics/SVG/1.1/DTD/svg11.dtd">
<!-- Generated by graphviz version 12.0.0 (20240803.0821)
 -->
<!-- Pages: 1 -->
<svg width="1443pt" height="338pt"
 viewBox="0.00 0.00 1443.10 337.60" xmlns="http://www.w3.org/2000/svg" xmlns:xlink="http://www.w3.org/1999/xlink">
<g id="graph0" class="graph" transform="scale(1 1) rotate(0) translate(4 333.6)">
<polygon fill="white" stroke="none" points="-4,4 -4,-333.6 1439.1,-333.6 1439.1,4 -4,4"/>
<g id="clust1" class="cluster">
<title>cluster__legend</title>
<polygon fill="#ffffff" stroke="black" points="60.5,-161.8 60.5,-298.8 155.1,-298.8 155.1,-161.8 60.5,-161.8"/>
<text text-anchor="middle" x="107.8" y="-281.5" font-family="Helvetica,sans-Serif" font-size="14.00">Legend</text>
</g>
<!-- load_geometries -->
<g id="node1" class="node">
<title>load_geometries</title>
<path fill="#b4d8e4" stroke="black" d="M423.2,-159.6C423.2,-159.6 295.85,-159.6 295.85,-159.6 289.85,-159.6 283.85,-153.6 283.85,-147.6 283.85,-147.6 283.85,-108 283.85,-108 283.85,-102 289.85,-96 295.85,-96 295.85,-96 423.2,-96 423.2,-96 429.2,-96 435.2,-102 435.2,-108 435.2,-108 435.2,-147.6 435.2,-147.6 435.2,-153.6 429.2,-159.6 423.2,-159.6"/>
<text text-anchor="start" x="294.65" y="-136.5" font-family="Helvetica,sans-Serif" font-weight="bold" font-size="14.00">load_geometries</text>
<text text-anchor="start" x="307.77" y="-108.5" font-family="Helvetica,sans-Serif" font-style="italic" font-size="14.00">GeoDataFrame</text>
</g>
<!-- get_all_area_polygon -->
<g id="node5" class="node">
<title>get_all_area_polygon</title>
<path fill="#b4d8e4" stroke="black" d="M691.8,-63.6C691.8,-63.6 530.7,-63.6 530.7,-63.6 524.7,-63.6 518.7,-57.6 518.7,-51.6 518.7,-51.6 518.7,-12 518.7,-12 518.7,-6 524.7,0 530.7,0 530.7,0 691.8,0 691.8,0 697.8,0 703.8,-6 703.8,-12 703.8,-12 703.8,-51.6 703.8,-51.6 703.8,-57.6 697.8,-63.6 691.8,-63.6"/>
<text text-anchor="start" x="529.5" y="-40.5" font-family="Helvetica,sans-Serif" font-weight="bold" font-size="14.00">get_all_area_polygon</text>
<text text-anchor="start" x="559.5" y="-12.5" font-family="Helvetica,sans-Serif" font-style="italic" font-size="14.00">GeoDataFrame</text>
</g>
<!-- load_geometries&#45;&gt;get_all_area_polygon -->
<g id="edge9" class="edge">
<title>load_geometries&#45;&gt;get_all_area_polygon</title>
<path fill="none" stroke="black" d="M435.44,-98.96C457.36,-90.52 481.36,-81.29 503.45,-72.8 507.51,-71.24 511.65,-69.65 515.83,-68.04"/>
<polygon fill="black" stroke="black" points="516.8,-71.42 524.88,-64.57 514.29,-64.88 516.8,-71.42"/>
</g>
<!-- get_target_polygon -->
<g id="node7" class="node">
<title>get_target_polygon</title>
<path fill="#b4d8e4" stroke="black" d="M685.8,-255.6C685.8,-255.6 536.7,-255.6 536.7,-255.6 530.7,-255.6 524.7,-249.6 524.7,-243.6 524.7,-243.6 524.7,-204 524.7,-204 524.7,-198 530.7,-192 536.7,-192 536.7,-192 685.8,-192 685.8,-192 691.8,-192 697.8,-198 697.8,-204 697.8,-204 697.8,-243.6 697.8,-243.6 697.8,-249.6 691.8,-255.6 685.8,-255.6"/>
<text text-anchor="start" x="535.5" y="-232.5" font-family="Helvetica,sans-Serif" font-weight="bold" font-size="14.00">get_target_polygon</text>
<text text-anchor="start" x="559.5" y="-204.5" font-family="Helvetica,sans-Serif" font-style="italic" font-size="14.00">GeoDataFrame</text>
</g>
<!-- load_geometries&#45;&gt;get_target_polygon -->
<g id="edge12" class="edge">
<title>load_geometries&#45;&gt;get_target_polygon</title>
<path fill="none" stroke="black" d="M435.44,-156.64C457.36,-165.08 481.36,-174.31 503.45,-182.8 507.51,-184.36 511.65,-185.95 515.83,-187.56"/>
<polygon fill="black" stroke="black" points="514.29,-190.72 524.88,-191.03 516.8,-184.18 514.29,-190.72"/>
</g>
<!-- load_binary_mask -->
<g id="node2" class="node">
<title>load_binary_mask</title>
<path fill="#b4d8e4" stroke="black" d="M1194.5,-159.6C1194.5,-159.6 1058.9,-159.6 1058.9,-159.6 1052.9,-159.6 1046.9,-153.6 1046.9,-147.6 1046.9,-147.6 1046.9,-108 1046.9,-108 1046.9,-102 1052.9,-96 1058.9,-96 1058.9,-96 1194.5,-96 1194.5,-96 1200.5,-96 1206.5,-102 1206.5,-108 1206.5,-108 1206.5,-147.6 1206.5,-147.6 1206.5,-153.6 1200.5,-159.6 1194.5,-159.6"/>
<text text-anchor="start" x="1057.7" y="-136.5" font-family="Helvetica,sans-Serif" font-weight="bold" font-size="14.00">load_binary_mask</text>
<text text-anchor="start" x="1108.32" y="-108.5" font-family="Helvetica,sans-Serif" font-style="italic" font-size="14.00">array</text>
</g>
<!-- prepare_wordcloud -->
<g id="node4" class="node">
<title>prepare_wordcloud</title>
<path fill="#b4d8e4" stroke="black" d="M1423.1,-244.6C1423.1,-244.6 1275.5,-244.6 1275.5,-244.6 1269.5,-244.6 1263.5,-238.6 1263.5,-232.6 1263.5,-232.6 1263.5,-193 1263.5,-193 1263.5,-187 1269.5,-181 1275.5,-181 1275.5,-181 1423.1,-181 1423.1,-181 1429.1,-181 1435.1,-187 1435.1,-193 1435.1,-193 1435.1,-232.6 1435.1,-232.6 1435.1,-238.6 1429.1,-244.6 1423.1,-244.6"/>
<text text-anchor="start" x="1274.3" y="-221.5" font-family="Helvetica,sans-Serif" font-weight="bold" font-size="14.00">prepare_wordcloud</text>
<text text-anchor="start" x="1311.05" y="-193.5" font-family="Helvetica,sans-Serif" font-style="italic" font-size="14.00">WordCloud</text>
</g>
<!-- load_binary_mask&#45;&gt;prepare_wordcloud -->
<g id="edge7" class="edge">
<title>load_binary_mask&#45;&gt;prepare_wordcloud</title>
<path fill="none" stroke="black" d="M1206.74,-158.12C1216.1,-161.71 1225.51,-165.34 1234.5,-168.8 1240.99,-171.3 1247.68,-173.88 1254.42,-176.48"/>
<polygon fill="black" stroke="black" points="1253.02,-179.69 1263.61,-180.03 1255.55,-173.16 1253.02,-179.69"/>
</g>
<!-- prepare_binary_mask -->
<g id="node3" class="node">
<title>prepare_binary_mask</title>
<path fill="#b4d8e4" stroke="black" d="M951.02,-159.6C951.02,-159.6 786.92,-159.6 786.92,-159.6 780.92,-159.6 774.92,-153.6 774.92,-147.6 774.92,-147.6 774.92,-108 774.92,-108 774.92,-102 780.92,-96 786.92,-96 786.92,-96 951.02,-96 951.02,-96 957.02,-96 963.02,-102 963.02,-108 963.02,-108 963.02,-147.6 963.02,-147.6 963.02,-153.6 957.02,-159.6 951.02,-159.6"/>
<text text-anchor="start" x="785.72" y="-136.5" font-family="Helvetica,sans-Serif" font-weight="bold" font-size="14.00">prepare_binary_mask</text>
<text text-anchor="start" x="859.6" y="-108.5" font-family="Helvetica,sans-Serif" font-style="italic" font-size="14.00">str</text>
</g>
<!-- prepare_binary_mask&#45;&gt;load_binary_mask -->
<g id="edge2" class="edge">
<title>prepare_binary_mask&#45;&gt;load_binary_mask</title>
<path fill="none" stroke="black" d="M963.38,-127.8C986.8,-127.8 1011.89,-127.8 1035.16,-127.8"/>
<polygon fill="black" stroke="black" points="1034.92,-131.3 1044.92,-127.8 1034.92,-124.3 1034.92,-131.3"/>
</g>
<!-- get_all_area_polygon&#45;&gt;prepare_binary_mask -->
<g id="edge4" class="edge">
<title>get_all_area_polygon&#45;&gt;prepare_binary_mask</title>
<path fill="none" stroke="black" d="M698.11,-64.03C721.75,-72.91 747.54,-82.59 771.72,-91.67"/>
<polygon fill="black" stroke="black" points="770.33,-94.88 780.92,-95.12 772.79,-88.33 770.33,-94.88"/>
</g>
<!-- load_text_data -->
<g id="node6" class="node">
<title>load_text_data</title>
<path fill="#b4d8e4" stroke="black" d="M1183.25,-329.6C1183.25,-329.6 1070.15,-329.6 1070.15,-329.6 1064.15,-329.6 1058.15,-323.6 1058.15,-317.6 1058.15,-317.6 1058.15,-278 1058.15,-278 1058.15,-272 1064.15,-266 1070.15,-266 1070.15,-266 1183.25,-266 1183.25,-266 1189.25,-266 1195.25,-272 1195.25,-278 1195.25,-278 1195.25,-317.6 1195.25,-317.6 1195.25,-323.6 1189.25,-329.6 1183.25,-329.6"/>
<text text-anchor="start" x="1068.95" y="-306.5" font-family="Helvetica,sans-Serif" font-weight="bold" font-size="14.00">load_text_data</text>
<text text-anchor="start" x="1113.95" y="-278.5" font-family="Helvetica,sans-Serif" font-style="italic" font-size="14.00">dict</text>
</g>
<!-- load_text_data&#45;&gt;prepare_wordcloud -->
<g id="edge6" class="edge">
<title>load_text_data&#45;&gt;prepare_wordcloud</title>
<path fill="none" stroke="black" d="M1195.51,-271.8C1208.45,-266.82 1221.9,-261.66 1234.5,-256.8 1240.99,-254.3 1247.68,-251.72 1254.42,-249.12"/>
<polygon fill="black" stroke="black" points="1255.55,-252.44 1263.61,-245.57 1253.02,-245.91 1255.55,-252.44"/>
</g>
<!-- get_target_polygon&#45;&gt;prepare_binary_mask -->
<g id="edge3" class="edge">
<title>get_target_polygon&#45;&gt;prepare_binary_mask</title>
<path fill="none" stroke="black" d="M698.11,-191.57C721.75,-182.69 747.54,-173.01 771.72,-163.93"/>
<polygon fill="black" stroke="black" points="772.79,-167.27 780.92,-160.48 770.33,-160.72 772.79,-167.27"/>
</g>
<!-- _load_geometries_inputs -->
<g id="node8" class="node">
<title>_load_geometries_inputs</title>
<polygon fill="#ffffff" stroke="black" stroke-dasharray="5,2" points="215.6,-151.22 0,-151.22 0,-104.38 215.6,-104.38 215.6,-151.22"/>
<text text-anchor="start" x="14.8" y="-123.13" font-family="Helvetica,sans-Serif" font-size="14.00">geometries</text>
<text text-anchor="start" x="98.8" y="-123.13" font-family="Helvetica,sans-Serif" font-size="14.00">GeoDataFrame</text>
</g>
<!-- _load_geometries_inputs&#45;&gt;load_geometries -->
<g id="edge1" class="edge">
<title>_load_geometries_inputs&#45;&gt;load_geometries</title>
<path fill="none" stroke="black" d="M215.79,-127.8C234.56,-127.8 253.88,-127.8 272,-127.8"/>
<polygon fill="black" stroke="black" points="271.9,-131.3 281.9,-127.8 271.9,-124.3 271.9,-131.3"/>
</g>
<!-- _prepare_binary_mask_inputs -->
<g id="node9" class="node">
<title>_prepare_binary_mask_inputs</title>
<polygon fill="#ffffff" stroke="black" stroke-dasharray="5,2" points="719.05,-174.1 503.45,-174.1 503.45,-81.5 719.05,-81.5 719.05,-174.1"/>
<text text-anchor="start" x="518" y="-146" font-family="Helvetica,sans-Serif" font-size="14.00">target_country_iso_a3</text>
<text text-anchor="start" x="680.37" y="-146" font-family="Helvetica,sans-Serif" font-size="14.00">str</text>
<text text-anchor="start" x="530" y="-123" font-family="Helvetica,sans-Serif" font-size="14.00">binary_mask_tight</text>
<text text-anchor="start" x="675.12" y="-123" font-family="Helvetica,sans-Serif" font-size="14.00">bool</text>
<text text-anchor="start" x="560.75" y="-100" font-family="Helvetica,sans-Serif" font-size="14.00">mask_dpi</text>
<text text-anchor="start" x="680.75" y="-100" font-family="Helvetica,sans-Serif" font-size="14.00">int</text>
</g>
<!-- _prepare_binary_mask_inputs&#45;&gt;prepare_binary_mask -->
<g id="edge5" class="edge">
<title>_prepare_binary_mask_inputs&#45;&gt;prepare_binary_mask</title>
<path fill="none" stroke="black" d="M719.22,-127.8C733.69,-127.8 748.53,-127.8 762.97,-127.8"/>
<polygon fill="black" stroke="black" points="762.93,-131.3 772.93,-127.8 762.93,-124.3 762.93,-131.3"/>
</g>
<!-- _prepare_wordcloud_inputs -->
<g id="node10" class="node">
<title>_prepare_wordcloud_inputs</title>
<polygon fill="#ffffff" stroke="black" stroke-dasharray="5,2" points="1234.5,-247.6 1018.9,-247.6 1018.9,-178 1234.5,-178 1234.5,-247.6"/>
<text text-anchor="start" x="1033.45" y="-219.5" font-family="Helvetica,sans-Serif" font-size="14.00">target_country_iso_a3</text>
<text text-anchor="start" x="1195.82" y="-219.5" font-family="Helvetica,sans-Serif" font-size="14.00">str</text>
<text text-anchor="start" x="1045.45" y="-196.5" font-family="Helvetica,sans-Serif" font-size="14.00">binary_mask_tight</text>
<text text-anchor="start" x="1190.57" y="-196.5" font-family="Helvetica,sans-Serif" font-size="14.00">bool</text>
</g>
<!-- _prepare_wordcloud_inputs&#45;&gt;prepare_wordcloud -->
<g id="edge8" class="edge">
<title>_prepare_wordcloud_inputs&#45;&gt;prepare_wordcloud</title>
<path fill="none" stroke="black" d="M1234.77,-212.8C1240.44,-212.8 1246.12,-212.8 1251.76,-212.8"/>
<polygon fill="black" stroke="black" points="1251.72,-216.3 1261.72,-212.8 1251.72,-209.3 1251.72,-216.3"/>
</g>
<!-- _get_all_area_polygon_inputs -->
<g id="node11" class="node">
<title>_get_all_area_polygon_inputs</title>
<polygon fill="#ffffff" stroke="black" stroke-dasharray="5,2" points="474.45,-55.22 244.6,-55.22 244.6,-8.38 474.45,-8.38 474.45,-55.22"/>
<text text-anchor="start" x="259.4" y="-27.12" font-family="Helvetica,sans-Serif" font-size="14.00">all_area_countries_iso_a3</text>
<text text-anchor="start" x="439.4" y="-27.12" font-family="Helvetica,sans-Serif" font-size="14.00">list</text>
</g>
<!-- _get_all_area_polygon_inputs&#45;&gt;get_all_area_polygon -->
<g id="edge10" class="edge">
<title>_get_all_area_polygon_inputs&#45;&gt;get_all_area_polygon</title>
<path fill="none" stroke="black" d="M474.79,-31.8C485.54,-31.8 496.4,-31.8 507.04,-31.8"/>
<polygon fill="black" stroke="black" points="506.97,-35.3 516.97,-31.8 506.97,-28.3 506.97,-35.3"/>
</g>
<!-- _load_text_data_inputs -->
<g id="node12" class="node">
<title>_load_text_data_inputs</title>
<polygon fill="#ffffff" stroke="black" stroke-dasharray="5,2" points="989.9,-321.23 748.05,-321.23 748.05,-274.38 989.9,-274.38 989.9,-321.23"/>
<text text-anchor="start" x="762.85" y="-293.12" font-family="Helvetica,sans-Serif" font-size="14.00">dict_surname_frequencies</text>
<text text-anchor="start" x="949.6" y="-293.12" font-family="Helvetica,sans-Serif" font-size="14.00">dict</text>
</g>
<!-- _load_text_data_inputs&#45;&gt;load_text_data -->
<g id="edge11" class="edge">
<title>_load_text_data_inputs&#45;&gt;load_text_data</title>
<path fill="none" stroke="black" d="M990.35,-297.8C1009.37,-297.8 1028.61,-297.8 1046.39,-297.8"/>
<polygon fill="black" stroke="black" points="1046.33,-301.3 1056.33,-297.8 1046.33,-294.3 1046.33,-301.3"/>
</g>
<!-- _get_target_polygon_inputs -->
<g id="node13" class="node">
<title>_get_target_polygon_inputs</title>
<polygon fill="#ffffff" stroke="black" stroke-dasharray="5,2" points="462.45,-247.23 256.6,-247.23 256.6,-200.38 462.45,-200.38 462.45,-247.23"/>
<text text-anchor="start" x="271.4" y="-219.12" font-family="Helvetica,sans-Serif" font-size="14.00">target_country_iso_a3</text>
<text text-anchor="start" x="428.9" y="-219.12" font-family="Helvetica,sans-Serif" font-size="14.00">str</text>
</g>
<!-- _get_target_polygon_inputs&#45;&gt;get_target_polygon -->
<g id="edge13" class="edge">
<title>_get_target_polygon_inputs&#45;&gt;get_target_polygon</title>
<path fill="none" stroke="black" d="M462.82,-223.8C479.45,-223.8 496.64,-223.8 513.15,-223.8"/>
<polygon fill="black" stroke="black" points="512.94,-227.3 522.94,-223.8 512.94,-220.3 512.94,-227.3"/>
</g>
<!-- input -->
<g id="node14" class="node">
<title>input</title>
<polygon fill="#ffffff" stroke="black" stroke-dasharray="5,2" points="136.6,-208.23 79,-208.23 79,-169.38 136.6,-169.38 136.6,-208.23"/>
<text text-anchor="middle" x="107.8" y="-184.12" font-family="Helvetica,sans-Serif" font-size="14.00">input</text>
</g>
<!-- function -->
<g id="node15" class="node">
<title>function</title>
<path fill="#b4d8e4" stroke="black" d="M135.1,-265.23C135.1,-265.23 80.5,-265.23 80.5,-265.23 74.5,-265.23 68.5,-259.23 68.5,-253.23 68.5,-253.23 68.5,-238.38 68.5,-238.38 68.5,-232.38 74.5,-226.38 80.5,-226.38 80.5,-226.38 135.1,-226.38 135.1,-226.38 141.1,-226.38 147.1,-232.38 147.1,-238.38 147.1,-238.38 147.1,-253.23 147.1,-253.23 147.1,-259.23 141.1,-265.23 135.1,-265.23"/>
<text text-anchor="middle" x="107.8" y="-241.12" font-family="Helvetica,sans-Serif" font-size="14.00">function</text>
</g>
</g>
</svg>
