<?xml version="1.0" encoding="UTF-8" standalone="no"?>
<!DOCTYPE svg PUBLIC "-//W3C//DTD SVG 1.1//EN"
 "http://www.w3.org/Graphics/SVG/1.1/DTD/svg11.dtd">
<!-- Generated by graphviz version 12.0.0 (20240803.0821)
 -->
<!-- Pages: 1 -->
<svg width="980pt" height="195pt"
 viewBox="0.00 0.00 979.75 194.60" xmlns="http://www.w3.org/2000/svg" xmlns:xlink="http://www.w3.org/1999/xlink">
<g id="graph0" class="graph" transform="scale(1 1) rotate(0) translate(4 190.6)">
<polygon fill="white" stroke="none" points="-4,4 -4,-190.6 975.75,-190.6 975.75,4 -4,4"/>
<!-- load_geometries -->
<g id="node1" class="node">
<title>load_geometries</title>
<path fill="#b4d8e4" stroke="black" d="M139.35,-145.6C139.35,-145.6 12,-145.6 12,-145.6 6,-145.6 0,-139.6 0,-133.6 0,-133.6 0,-94 0,-94 0,-88 6,-82 12,-82 12,-82 139.35,-82 139.35,-82 145.35,-82 151.35,-88 151.35,-94 151.35,-94 151.35,-133.6 151.35,-133.6 151.35,-139.6 145.35,-145.6 139.35,-145.6"/>
<text text-anchor="start" x="10.8" y="-122.5" font-family="Helvetica,sans-Serif" font-weight="bold" font-size="14.00">load_geometries</text>
<text text-anchor="start" x="23.92" y="-94.5" font-family="Helvetica,sans-Serif" font-style="italic" font-size="14.00">GeoDataFrame</text>
</g>
<!-- get_all_area_polygon -->
<g id="node5" class="node">
<title>get_all_area_polygon</title>
<path fill="#b4d8e4" stroke="black" d="M353.45,-186.6C353.45,-186.6 192.35,-186.6 192.35,-186.6 186.35,-186.6 180.35,-180.6 180.35,-174.6 180.35,-174.6 180.35,-135 180.35,-135 180.35,-129 186.35,-123 192.35,-123 192.35,-123 353.45,-123 353.45,-123 359.45,-123 365.45,-129 365.45,-135 365.45,-135 365.45,-174.6 365.45,-174.6 365.45,-180.6 359.45,-186.6 353.45,-186.6"/>
<text text-anchor="start" x="191.15" y="-163.5" font-family="Helvetica,sans-Serif" font-weight="bold" font-size="14.00">get_all_area_polygon</text>
<text text-anchor="start" x="221.15" y="-135.5" font-family="Helvetica,sans-Serif" font-style="italic" font-size="14.00">GeoDataFrame</text>
</g>
<!-- load_geometries&#45;&gt;get_all_area_polygon -->
<g id="edge6" class="edge">
<title>load_geometries&#45;&gt;get_all_area_polygon</title>
<path fill="none" stroke="black" d="M151.6,-129.53C157.3,-130.73 163.11,-131.95 168.94,-133.18"/>
<polygon fill="black" stroke="black" points="168.19,-136.59 178.69,-135.23 169.63,-129.74 168.19,-136.59"/>
</g>
<!-- get_target_polygon -->
<g id="node7" class="node">
<title>get_target_polygon</title>
<path fill="#b4d8e4" stroke="black" d="M347.45,-104.6C347.45,-104.6 198.35,-104.6 198.35,-104.6 192.35,-104.6 186.35,-98.6 186.35,-92.6 186.35,-92.6 186.35,-53 186.35,-53 186.35,-47 192.35,-41 198.35,-41 198.35,-41 347.45,-41 347.45,-41 353.45,-41 359.45,-47 359.45,-53 359.45,-53 359.45,-92.6 359.45,-92.6 359.45,-98.6 353.45,-104.6 347.45,-104.6"/>
<text text-anchor="start" x="197.15" y="-81.5" font-family="Helvetica,sans-Serif" font-weight="bold" font-size="14.00">get_target_polygon</text>
<text text-anchor="start" x="221.15" y="-53.5" font-family="Helvetica,sans-Serif" font-style="italic" font-size="14.00">GeoDataFrame</text>
</g>
<!-- load_geometries&#45;&gt;get_target_polygon -->
<g id="edge7" class="edge">
<title>load_geometries&#45;&gt;get_target_polygon</title>
<path fill="none" stroke="black" d="M151.6,-98.07C159.27,-96.45 167.14,-94.8 175.01,-93.15"/>
<polygon fill="black" stroke="black" points="175.55,-96.61 184.62,-91.13 174.12,-89.76 175.55,-96.61"/>
</g>
<!-- load_binary_mask -->
<g id="node2" class="node">
<title>load_binary_mask</title>
<path fill="#b4d8e4" stroke="black" d="M759.15,-145.6C759.15,-145.6 623.55,-145.6 623.55,-145.6 617.55,-145.6 611.55,-139.6 611.55,-133.6 611.55,-133.6 611.55,-94 611.55,-94 611.55,-88 617.55,-82 623.55,-82 623.55,-82 759.15,-82 759.15,-82 765.15,-82 771.15,-88 771.15,-94 771.15,-94 771.15,-133.6 771.15,-133.6 771.15,-139.6 765.15,-145.6 759.15,-145.6"/>
<text text-anchor="start" x="622.35" y="-122.5" font-family="Helvetica,sans-Serif" font-weight="bold" font-size="14.00">load_binary_mask</text>
<text text-anchor="start" x="672.97" y="-94.5" font-family="Helvetica,sans-Serif" font-style="italic" font-size="14.00">array</text>
</g>
<!-- prepare_wordcloud -->
<g id="node4" class="node">
<title>prepare_wordcloud</title>
<path fill="#b4d8e4" stroke="black" d="M959.75,-104.6C959.75,-104.6 812.15,-104.6 812.15,-104.6 806.15,-104.6 800.15,-98.6 800.15,-92.6 800.15,-92.6 800.15,-53 800.15,-53 800.15,-47 806.15,-41 812.15,-41 812.15,-41 959.75,-41 959.75,-41 965.75,-41 971.75,-47 971.75,-53 971.75,-53 971.75,-92.6 971.75,-92.6 971.75,-98.6 965.75,-104.6 959.75,-104.6"/>
<text text-anchor="start" x="810.95" y="-81.5" font-family="Helvetica,sans-Serif" font-weight="bold" font-size="14.00">prepare_wordcloud</text>
<text text-anchor="start" x="847.7" y="-53.5" font-family="Helvetica,sans-Serif" font-style="italic" font-size="14.00">WordCloud</text>
</g>
<!-- load_binary_mask&#45;&gt;prepare_wordcloud -->
<g id="edge5" class="edge">
<title>load_binary_mask&#45;&gt;prepare_wordcloud</title>
<path fill="none" stroke="black" d="M771.52,-96.95C777.21,-95.73 782.98,-94.51 788.76,-93.28"/>
<polygon fill="black" stroke="black" points="789.3,-96.74 798.35,-91.23 787.84,-89.89 789.3,-96.74"/>
</g>
<!-- prepare_binary_mask -->
<g id="node3" class="node">
<title>prepare_binary_mask</title>
<path fill="#b4d8e4" stroke="black" d="M570.55,-145.6C570.55,-145.6 406.45,-145.6 406.45,-145.6 400.45,-145.6 394.45,-139.6 394.45,-133.6 394.45,-133.6 394.45,-94 394.45,-94 394.45,-88 400.45,-82 406.45,-82 406.45,-82 570.55,-82 570.55,-82 576.55,-82 582.55,-88 582.55,-94 582.55,-94 582.55,-133.6 582.55,-133.6 582.55,-139.6 576.55,-145.6 570.55,-145.6"/>
<text text-anchor="start" x="405.25" y="-122.5" font-family="Helvetica,sans-Serif" font-weight="bold" font-size="14.00">prepare_binary_mask</text>
<text text-anchor="start" x="479.12" y="-94.5" font-family="Helvetica,sans-Serif" font-style="italic" font-size="14.00">str</text>
</g>
<!-- prepare_binary_mask&#45;&gt;load_binary_mask -->
<g id="edge1" class="edge">
<title>prepare_binary_mask&#45;&gt;load_binary_mask</title>
<path fill="none" stroke="black" d="M582.87,-113.8C588.46,-113.8 594.09,-113.8 599.67,-113.8"/>
<polygon fill="black" stroke="black" points="599.55,-117.3 609.55,-113.8 599.55,-110.3 599.55,-117.3"/>
</g>
<!-- get_all_area_polygon&#45;&gt;prepare_binary_mask -->
<g id="edge3" class="edge">
<title>get_all_area_polygon&#45;&gt;prepare_binary_mask</title>
<path fill="none" stroke="black" d="M365.73,-137.17C371.44,-136.08 377.22,-134.97 382.99,-133.86"/>
<polygon fill="black" stroke="black" points="383.41,-137.34 392.57,-132.02 382.09,-130.47 383.41,-137.34"/>
</g>
<!-- load_text_data -->
<g id="node6" class="node">
<title>load_text_data</title>
<path fill="#b4d8e4" stroke="black" d="M747.9,-63.6C747.9,-63.6 634.8,-63.6 634.8,-63.6 628.8,-63.6 622.8,-57.6 622.8,-51.6 622.8,-51.6 622.8,-12 622.8,-12 622.8,-6 628.8,0 634.8,0 634.8,0 747.9,0 747.9,0 753.9,0 759.9,-6 759.9,-12 759.9,-12 759.9,-51.6 759.9,-51.6 759.9,-57.6 753.9,-63.6 747.9,-63.6"/>
<text text-anchor="start" x="633.6" y="-40.5" font-family="Helvetica,sans-Serif" font-weight="bold" font-size="14.00">load_text_data</text>
<text text-anchor="start" x="678.6" y="-12.5" font-family="Helvetica,sans-Serif" font-style="italic" font-size="14.00">dict</text>
</g>
<!-- load_text_data&#45;&gt;prepare_wordcloud -->
<g id="edge4" class="edge">
<title>load_text_data&#45;&gt;prepare_wordcloud</title>
<path fill="none" stroke="black" d="M760.25,-46.26C769.44,-48.21 779,-50.25 788.57,-52.28"/>
<polygon fill="black" stroke="black" points="787.78,-55.69 798.29,-54.35 789.24,-48.85 787.78,-55.69"/>
</g>
<!-- get_target_polygon&#45;&gt;prepare_binary_mask -->
<g id="edge2" class="edge">
<title>get_target_polygon&#45;&gt;prepare_binary_mask</title>
<path fill="none" stroke="black" d="M359.86,-89.3C367.41,-90.75 375.11,-92.23 382.8,-93.7"/>
<polygon fill="black" stroke="black" points="382.06,-97.12 392.54,-95.57 383.38,-90.25 382.06,-97.12"/>
</g>
</g>
</svg>
